<svg width="80" height="80" viewBox="0 0 80 80" fill="none" xmlns="http://www.w3.org/2000/svg">
<g clip-path="url(#clip0_120_1329)">
<path d="M28.6482 60.3172C28.0022 60.3172 27.4785 60.8407 27.4785 61.4869V67.6468C27.4785 68.293 28.0022 68.8165 28.6482 68.8165C29.2942 68.8165 29.8179 68.293 29.8179 67.6468V61.4869C29.8179 60.8407 29.2942 60.3172 28.6482 60.3172Z" fill="#1E959B"/>
<path d="M51.2893 60.3172C50.6433 60.3172 50.1196 60.8407 50.1196 61.4869V67.6468C50.1196 68.293 50.6433 68.8165 51.2893 68.8165C51.9353 68.8165 52.459 68.293 52.459 67.6468V61.4869C52.459 60.8407 51.9353 60.3172 51.2893 60.3172Z" fill="#1E959B"/>
<path d="M74.0176 56.2337L70.101 54.6624V53.6621C70.8699 53.2348 71.5602 52.6788 72.1411 52.0225C74.6185 52.3149 76.9888 51.326 78.5233 49.3365C80.1101 47.2791 80.4403 44.6277 79.4066 42.2439L77.6479 38.1887C77.5157 37.884 77.4247 37.5626 77.3773 37.2338C76.9984 34.5997 75.6819 32.1892 73.6706 30.4466C71.6592 28.7038 69.0859 27.7442 66.4247 27.7442C63.7634 27.7442 61.1901 28.7038 59.1788 30.4466C57.1676 32.1892 55.851 34.5995 55.472 37.2338C55.4246 37.5627 55.3337 37.8841 55.2014 38.1887L53.4429 42.2439C52.4092 44.6275 52.7393 47.279 54.3262 49.3365C55.6836 51.0965 57.6949 52.0773 59.8556 52.0771C60.1343 52.0771 60.4158 52.0606 60.6987 52.0274C61.2259 52.6251 61.8441 53.14 62.5326 53.5498V54.6622L58.6162 56.2337C58.3609 56.3361 58.1117 56.452 57.8687 56.5802C57.111 55.1864 56.0291 53.9676 54.6829 53.0417L49.5817 49.5335C49.6112 48.8892 49.3535 48.2403 48.8287 47.795L46.7559 46.0361C46.5594 45.8693 46.3386 45.7433 46.1053 45.6576V43.2896C48.2963 41.7004 49.8499 39.2859 50.3053 36.5052H50.4301C52.6603 36.5052 54.4747 34.6908 54.4747 32.4608C54.4747 31.5086 54.1431 30.6328 53.5905 29.9411L54.4266 23.9975C55.0292 19.7127 52.0378 15.7092 47.7579 15.0726L47.5915 15.0479C46.223 12.8143 44.1034 11.2028 41.5602 10.4817L41.2541 10.3948C37.8823 9.4388 34.2757 10.0094 31.359 11.9608C30.822 12.3199 30.6779 13.0464 31.0371 13.5832C31.3962 14.12 32.1225 14.2642 32.6596 13.9049C35.0054 12.3357 37.9052 11.8767 40.6159 12.6454L40.9221 12.7323C43.0501 13.3357 44.797 14.7419 45.8409 16.692C46.5591 18.0337 46.8762 19.5092 46.7846 20.9852L45.9917 20.3037C45.267 19.6808 44.2014 19.6642 43.4581 20.2647L42.418 21.1048H36.4809C32.6283 21.1048 29.4939 24.2392 29.4939 28.0918V28.4167C29.1837 28.4177 28.8821 28.4549 28.592 28.5224C27.2696 24.7997 27.6425 20.6054 29.63 17.1745C29.9538 16.6154 29.7632 15.8999 29.2043 15.576C28.6453 15.2524 27.9298 15.4428 27.6059 16.0018C25.2023 20.1511 24.8125 25.2526 26.5405 29.7173C25.8732 30.4388 25.4644 31.4028 25.4644 32.4608C25.4644 34.6908 27.2788 36.5052 29.509 36.5052H29.6338C30.0892 39.2859 31.6428 41.7004 33.8338 43.2896V45.6576C33.6005 45.7431 33.3797 45.8693 33.1833 46.036L31.1104 47.795C30.5856 48.2403 30.3279 48.8894 30.3574 49.5335L25.2562 53.0417C24.2196 53.7546 23.3394 54.641 22.6432 55.6474C22.192 55.3982 21.7218 55.1852 21.2349 55.0127L17.7714 53.7859V52.8641C19.5356 51.7741 20.8038 49.9572 21.1571 47.8343H21.6805C23.7327 47.8343 25.4022 46.1648 25.4022 44.1127C25.4022 43.1913 25.065 42.3479 24.5084 41.6973L24.7173 39.2252C25.0075 35.6654 23.4542 32.2886 20.562 30.193C17.6697 28.0971 13.9772 27.6724 10.6846 29.0567L8.35323 30.0369C4.74331 30.8338 2.3305 34.2929 2.84594 37.9673L3.36746 41.6853C2.80477 42.3375 2.46338 43.1857 2.46338 44.1127C2.46338 46.1648 4.13289 47.8343 6.18512 47.8343H6.70851C7.03883 49.8195 8.16967 51.5364 9.75761 52.6423V53.7859L6.29413 55.0125C5.80911 55.1844 5.33126 55.3996 4.874 55.6526C4.30865 55.9651 4.10373 56.6767 4.41626 57.2421C4.62961 57.6281 5.02902 57.8459 5.4409 57.8459C5.63226 57.8459 5.82642 57.7988 6.00577 57.6996C6.3509 57.5088 6.71069 57.3466 7.07485 57.2176L10.0677 56.1575C10.6737 57.602 12.1023 58.6192 13.7643 58.6192C15.4263 58.6192 16.8549 57.602 17.4609 56.1575L20.4537 57.2177C20.8302 57.3509 21.1936 57.5167 21.5418 57.7113C21.0772 58.8891 20.8282 60.1583 20.8282 61.4607V68.3998C20.8282 69.0459 21.3519 69.5695 21.9978 69.5695C22.6438 69.5695 23.1675 69.0459 23.1675 68.3998V61.4607C23.1675 58.8662 24.4439 56.4395 26.5816 54.9693L31.453 51.6191L33.4497 54.2887C33.8789 54.8626 34.5519 55.1859 35.246 55.1859C35.4622 55.1859 35.6805 55.1546 35.894 55.0896L38.7996 54.2053V68.8895C38.7996 69.5356 39.3233 70.0592 39.9693 70.0592C40.6153 70.0592 41.139 69.5356 41.139 68.8895V54.2053L44.0449 55.0897C44.2584 55.1546 44.4765 55.1859 44.6926 55.1859C45.3866 55.1859 46.0597 54.8625 46.4889 54.2887L48.4855 51.6191L53.3569 54.9693C55.4948 56.4395 56.771 58.8662 56.771 61.4607V68.3998C56.771 69.0459 57.2947 69.5695 57.9406 69.5695C58.5866 69.5695 59.1103 69.0459 59.1103 68.3998V61.4607C59.1103 60.5395 58.9854 59.6348 58.7483 58.767C58.9854 58.6287 59.232 58.5073 59.4869 58.405L62.8832 57.0423C63.4849 58.3374 64.7973 59.238 66.3167 59.238C67.8362 59.238 69.1486 58.3375 69.7503 57.0424L73.1467 58.405C75.2944 59.2665 76.6819 61.3185 76.6819 63.6324V65.6123C76.6819 66.2584 77.2056 66.7819 77.8516 66.7819C78.4976 66.7819 79.0213 66.2584 79.0213 65.6123V63.6324C79.0211 60.3573 77.057 57.4532 74.0176 56.2337ZM27.8033 32.4606C27.8033 31.5255 28.5602 30.7644 29.4934 30.7562V34.1647C28.5603 34.1566 27.8033 33.3957 27.8033 32.4606ZM21.6802 45.4948H21.2578V42.73H21.6802C22.4425 42.73 23.0626 43.3503 23.0626 44.1124C23.0626 44.8746 22.4425 45.4948 21.6802 45.4948ZM4.80241 44.1126C4.80241 43.3503 5.42249 42.7302 6.18481 42.7302H6.60714V45.495H6.18481C5.42265 45.4948 4.80241 44.8747 4.80241 44.1126ZM8.02775 36.7853C7.25186 37.8567 6.78275 39.0905 6.64847 40.3907H6.18481C5.97021 40.3907 5.7603 40.41 5.55553 40.4449L5.16236 37.6419C4.81271 35.1498 6.47083 32.8051 8.93713 32.304C9.01261 32.2887 9.08653 32.266 9.15765 32.236L11.5912 31.2128C14.1242 30.1478 16.9645 30.4748 19.1892 32.0868C21.4139 33.6991 22.6089 36.2964 22.3859 39.0312L22.267 40.4371C22.0758 40.4067 21.8799 40.3905 21.6802 40.3905H21.2475C21.1468 39.3988 20.307 38.6221 19.289 38.6221H16.4007C14.3423 38.6221 12.3053 37.937 10.6653 36.6933L10.3343 36.4423C9.98687 36.1788 9.5399 36.0643 9.10899 36.1285C8.67762 36.1928 8.28351 36.4322 8.02775 36.7853ZM9.92246 38.1574C9.92215 38.1578 9.92199 38.1582 9.92184 38.1585C9.92199 38.1582 9.9223 38.1578 9.92246 38.1574ZM8.94664 41.1692C8.94664 40.3233 9.15048 39.5058 9.54083 38.7697C11.5329 40.1856 13.9547 40.9618 16.4009 40.9618H18.9185V46.6283C18.9185 49.3777 16.6818 51.6144 13.9326 51.6144C11.1834 51.6144 8.94664 49.3777 8.94664 46.6283V41.1692ZM13.7641 56.2798C12.8446 56.2798 12.0966 55.5317 12.0966 54.6123V53.7206C12.6835 53.8726 13.2988 53.9537 13.9326 53.9537C14.4463 53.9537 14.9475 53.9001 15.4318 53.7989V54.6123C15.4318 55.5317 14.6837 56.2798 13.7641 56.2798ZM50.4448 34.1647V30.7562C51.378 30.7643 52.1349 31.5255 52.1349 32.4606C52.1349 33.3957 51.378 34.1566 50.4448 34.1647ZM52.1096 23.6712L51.4246 28.5402C51.1108 28.4605 50.7826 28.4176 50.4446 28.4163V28.3217C50.4446 26.4359 49.8613 24.6219 48.805 23.1062C49.2656 21.3323 49.2493 19.5061 48.7726 17.7703C51.0319 18.7346 52.4667 21.1327 52.1096 23.6712ZM31.8329 34.8067V28.0915C31.8329 25.5287 33.9179 23.4438 36.4806 23.4438H42.8311C43.0986 23.4438 43.3579 23.3521 43.566 23.1842L44.694 22.2729L45.7419 23.1736C47.2439 24.4646 48.1053 26.3412 48.1053 28.3217V34.8065C48.1053 39.2929 44.4554 42.9427 39.969 42.9427C35.4826 42.9427 31.8329 39.2929 31.8329 34.8067ZM39.9692 45.2822C41.308 45.2822 42.5875 45.0271 43.7656 44.5673V46.0661L39.9692 47.9276L36.1727 46.0661V44.5673C37.3507 45.0269 38.6303 45.2822 39.9692 45.2822ZM35.2805 52.8307L32.7609 49.4619L34.6007 47.9006L38.7993 49.9592V51.7597L35.2805 52.8307ZM44.6577 52.8307L41.1388 51.7599V49.9594L45.3375 47.9008L47.1773 49.462L44.6577 52.8307ZM56.1783 47.9078C55.1194 46.5347 54.899 44.7656 55.589 43.1748L57.3475 39.1196C57.5624 38.6243 57.7104 38.102 57.7873 37.5671C58.4013 33.3009 62.1145 30.0837 66.4247 30.0837C70.7348 30.0837 74.448 33.3009 75.0618 37.5671C75.1387 38.1019 75.2867 38.6242 75.5016 39.1196L77.2602 43.1748C77.95 44.7654 77.7298 46.5347 76.6708 47.9078C75.8867 48.9243 74.7755 49.5501 73.5559 49.7003C73.8078 49.0459 73.972 48.3483 74.0324 47.6213C74.0857 46.9775 73.6069 46.4123 72.9633 46.359C72.3201 46.3067 71.7545 46.7844 71.701 47.428C71.4756 50.149 69.158 52.2805 66.4247 52.2805C63.5041 52.2805 61.1282 49.9046 61.1282 46.984V41.3729C61.1282 40.1287 61.4944 38.905 62.1689 37.8664C63.6825 39.0217 65.5482 39.6825 67.454 39.7328L71.7211 39.8454V42.5398C71.7211 43.1859 72.2448 43.7094 72.8908 43.7094C73.5367 43.7094 74.0604 43.1859 74.0604 42.5398V39.5287C74.0604 38.4286 73.1989 37.5442 72.0993 37.5153L67.5156 37.3946C66.0313 37.3553 64.5799 36.8177 63.4284 35.8812L63.1262 35.6353C62.7697 35.3453 62.3219 35.2125 61.8648 35.2616C61.408 35.3104 60.9983 35.535 60.7115 35.8935C59.4715 37.4428 58.7884 39.3888 58.7884 41.3734V46.9845C58.7884 47.9401 58.9664 48.8544 59.2884 49.6981C58.071 49.5469 56.9614 48.923 56.1783 47.9078ZM66.3166 56.8985C65.5198 56.8985 64.8715 56.2503 64.8715 55.4534V54.4607C65.3732 54.5648 65.8925 54.62 66.4245 54.62C66.8796 54.62 67.3261 54.5772 67.7615 54.4986V55.4536C67.7617 56.2503 67.1134 56.8985 66.3166 56.8985Z" fill="#1E959B"/>
<path d="M2.507 59.26C1.92559 58.9779 1.22613 59.2215 0.944472 59.8029C0.317839 61.0975 0 62.482 0 63.9182V67.6469C0 68.293 0.523701 68.8165 1.16967 68.8165C1.81564 68.8165 2.33935 68.293 2.33935 67.6469V63.9182C2.33935 62.8381 2.57843 61.7966 3.05019 60.8224C3.3317 60.241 3.08856 59.5413 2.507 59.26Z" fill="#1E959B"/>
</g>
<defs>
<clipPath id="clip0_120_1329">
<rect width="80" height="80" fill="white"/>
</clipPath>
</defs>
</svg>
