<svg width="27" height="49" viewBox="0 0 27 49" fill="none" xmlns="http://www.w3.org/2000/svg">
<path d="M23.455 0.641602H3.45701C1.54451 0.641602 -0.000488281 2.19153 -0.000488281 4.1027V44.6796C-0.000488281 46.5848 1.54451 48.1362 3.45701 48.1362H23.455C25.3645 48.1362 26.9155 46.5863 26.9155 44.6796V4.1027C26.914 2.19153 25.3645 0.641602 23.455 0.641602ZM24.322 39.123H2.59301V6.48006H24.322V39.123ZM18.0925 4.15367H8.821V3.14337H18.094L18.0925 4.15367ZM22.06 3.69199C22.06 4.18065 21.661 4.57638 21.1735 4.57638C20.6845 4.57638 20.287 4.17915 20.287 3.69199C20.287 3.20483 20.6845 2.8076 21.1735 2.8076C21.6625 2.8061 22.06 3.20333 22.06 3.69199ZM17.677 44.4488H9.2335V41.8526H17.677V44.4488Z" fill="#1E959B"/>
</svg>
